<svg width="64" height="64" viewBox="0 0 64 64" fill="none" xmlns="http://www.w3.org/2000/svg">
<path fill-rule="evenodd" clip-rule="evenodd" d="M56.1118 15.9248V28.6865C56.1118 30.8082 55.269 32.843 53.7687 34.3433L31.3198 56.7922C30.0954 58.0166 28.4349 58.7044 26.7034 58.7044C24.9719 58.7044 23.3113 58.0166 22.087 56.7922L7.17006 41.8753C5.96943 40.6747 5.29492 39.0463 5.29492 37.3483C5.29492 35.6551 5.96572 34.0308 7.1605 32.8309L29.5567 10.3399C31.0488 8.84138 33.0736 7.99467 35.1883 7.98483L48.0746 7.92489C52.5074 7.90428 56.1118 11.492 56.1118 15.9248ZM46 21C48.2091 21 50 19.2091 50 17C50 14.7909 48.2091 13 46 13C43.7909 13 42 14.7909 42 17C42 19.2091 43.7909 21 46 21Z" fill="#fbfbf8"/>
<path d="M31.3198 56.7922L30.9662 56.4387L30.9662 56.4387L31.3198 56.7922ZM22.087 56.7922L22.4405 56.4387L22.4405 56.4387L22.087 56.7922ZM7.17006 41.8753L7.52362 41.5218L7.52361 41.5218L7.17006 41.8753ZM7.1605 32.8309L6.8062 32.4781L6.8062 32.4781L7.1605 32.8309ZM29.5567 10.3399L29.911 10.6927L29.911 10.6927L29.5567 10.3399ZM35.1883 7.98483L35.1859 7.48484L35.1883 7.98483ZM48.0746 7.92489L48.0769 8.42489L48.0746 7.92489ZM56.6118 28.6865V15.9248H55.6118V28.6865H56.6118ZM54.1222 34.6969C55.7163 33.1028 56.6118 30.9408 56.6118 28.6865H55.6118C55.6118 30.6756 54.8216 32.5833 53.4151 33.9898L54.1222 34.6969ZM31.6733 57.1458L54.1222 34.6969L53.4151 33.9898L30.9662 56.4387L31.6733 57.1458ZM26.7034 59.2044C28.5675 59.2044 30.3552 58.4639 31.6733 57.1458L30.9662 56.4387C29.8356 57.5693 28.3023 58.2044 26.7034 58.2044V59.2044ZM21.7334 57.1458C23.0515 58.4639 24.8393 59.2044 26.7034 59.2044V58.2044C25.1045 58.2044 23.5711 57.5693 22.4405 56.4387L21.7334 57.1458ZM6.81651 42.2289L21.7334 57.1458L22.4405 56.4387L7.52362 41.5218L6.81651 42.2289ZM4.79492 37.3483C4.79492 39.1789 5.52211 40.9345 6.81651 42.2289L7.52361 41.5218C6.41675 40.4149 5.79492 38.9137 5.79492 37.3483H4.79492ZM6.8062 32.4781C5.51811 33.7717 4.79492 35.5228 4.79492 37.3483H5.79492C5.79492 35.7873 6.41333 34.2899 7.5148 33.1837L6.8062 32.4781ZM29.2024 9.98706L6.8062 32.4781L7.5148 33.1837L29.911 10.6927L29.2024 9.98706ZM35.1859 7.48484C32.9391 7.49529 30.7878 8.39492 29.2024 9.98706L29.911 10.6927C31.3099 9.28784 33.2081 8.49405 35.1906 8.48482L35.1859 7.48484ZM48.0723 7.4249L35.1859 7.48484L35.1906 8.48482L48.0769 8.42489L48.0723 7.4249ZM56.6118 15.9248C56.6118 11.2149 52.7821 7.40299 48.0723 7.4249L48.0769 8.42489C52.2327 8.40556 55.6118 11.769 55.6118 15.9248H56.6118ZM49.5 17C49.5 18.933 47.933 20.5 46 20.5V21.5C48.4853 21.5 50.5 19.4853 50.5 17H49.5ZM46 13.5C47.933 13.5 49.5 15.067 49.5 17H50.5C50.5 14.5147 48.4853 12.5 46 12.5V13.5ZM42.5 17C42.5 15.067 44.067 13.5 46 13.5V12.5C43.5147 12.5 41.5 14.5147 41.5 17H42.5ZM46 20.5C44.067 20.5 42.5 18.933 42.5 17H41.5C41.5 19.4853 43.5147 21.5 46 21.5V20.5Z" fill="#fbfbf8"/>
</svg>
