<svg width="16" height="16" viewBox="0 0 16 16" fill="none" xmlns="http://www.w3.org/2000/svg">
<rect x="0.5" y="0.5" width="15" height="15" rx="1.5" stroke="white"/>
<path d="M3.85734 10.0623L0.959828 12.5977C0.677538 12.8447 0.557216 13.2289 0.648191 13.5928L0.810634 14.2425C0.921926 14.6877 1.32191 15 1.78078 15H14.1802C14.6569 15 15.0673 14.6635 15.1608 14.1961L15.4023 12.9883C15.4638 12.6808 15.3775 12.3622 15.1692 12.1278L12.2046 8.79267C11.8223 8.36263 11.1569 8.34307 10.7501 8.74992L8.14574 11.3543C7.78002 11.72 7.19578 11.7465 6.79845 11.4154L5.15602 10.0467C4.77818 9.73182 4.22748 9.73845 3.85734 10.0623Z" fill="white" stroke="white"/>
<circle cx="4.5" cy="5" r="1.5" stroke="white"/>
</svg>
