<svg width="16" height="16" viewBox="0 0 16 16" fill="none" xmlns="http://www.w3.org/2000/svg">
<rect x="0.5" y="0.5" width="15" height="15" rx="1.5" stroke="#fbfbf8"/>
<path d="M1.75 8.625V7.5H2.875V8.625H1.75ZM2.875 9.75V8.625H4V9.75H2.875ZM2.875 7.5V6.375H4V7.5H2.875ZM4 9.75H5.125V10.875H4V9.75ZM4 6.375V5.25H5.125V6.375H4ZM6.25 9.75H7.375V12H6.25V9.75ZM7.375 9.75V6.375H8.5V9.75H7.375ZM8.5 6.375V4.125H9.625V6.375H8.5ZM10.75 10.875V9.75H11.875V10.875H10.75ZM10.75 6.375V5.25H11.875V6.375H10.75ZM11.875 9.75V8.625H13V9.75H11.875ZM11.875 6.375H13V7.5H11.875V6.375ZM13 7.5H14.125V8.625H13V7.5Z" fill="#fbfbf8"/>
</svg>
